<?xml version="1.0" encoding="utf-8"?>
<!-- Generator: Adobe Illustrator 19.2.1, SVG Export Plug-In . SVG Version: 6.00 Build 0)  -->
<!DOCTYPE svg PUBLIC "-//W3C//DTD SVG 1.1//EN" "http://www.w3.org/Graphics/SVG/1.1/DTD/svg11.dtd">
<svg version="1.1" id="Layer_1" xmlns="http://www.w3.org/2000/svg" xmlns:xlink="http://www.w3.org/1999/xlink" x="0px" y="0px"
	 width="1600px" height="1200px" viewBox="0 0 1600 1200" style="enable-background:new 0 0 1600 1200;" xml:space="preserve">
<style type="text/css">
	.st0{fill:#2B4EA2;}
	.st1{fill:none;stroke:#2B4EA2;stroke-width:4;stroke-linecap:round;stroke-linejoin:round;stroke-miterlimit:10;}
	.st2{fill:#2B4EA2;stroke:#2B4EA2;stroke-width:2;stroke-miterlimit:10;}
	.st3{fill:none;stroke:#2B4EA2;stroke-width:4;stroke-linecap:round;stroke-miterlimit:10;}
	.st4{fill:#2B4EA2;stroke:#2B4EA2;stroke-miterlimit:10;}
	.st5{fill:#2B4EA2;stroke:#2B4EA2;stroke-width:4;stroke-miterlimit:10;}
	.st6{fill:none;stroke:#2B4EA2;stroke-width:4;stroke-miterlimit:10;}
	.st7{fill:#2B4EA2;stroke:#2B4EA2;stroke-width:2;stroke-linecap:round;stroke-linejoin:round;stroke-miterlimit:10;}
	.st8{fill:none;stroke:#2B4EA2;stroke-width:5;stroke-linecap:round;stroke-miterlimit:10;}
	.st9{fill:#21409A;stroke:#2B4EA2;stroke-miterlimit:10;}
</style>
<path class="st0" d="M325.8,239.2c26,0,37,9.3,37,9.3s0,71.6,0,73.4c0,1.9-11.9,12.7-37,12.7c-22.9,0-37-10.3-37-12.7
	c0-2.4,0-73.4,0-73.4S295.7,239.2,325.8,239.2 M325.8,235.2c-31.2,0-39.3,9.9-40.2,11c-0.5,0.7-0.8,1.5-0.8,2.4V322
	c0,4.8,8.6,9.2,12.3,10.9c5.9,2.6,15.6,5.8,28.7,5.8c14.1,0,23.9-3.3,29.6-6c2.7-1.3,11.3-5.8,11.3-10.6v-73.4c0-1.2-0.5-2.3-1.4-3
	C364.8,245.1,352.9,235.2,325.8,235.2L325.8,235.2z"/>
<path class="st1" d="M363.5,272.3c0,0-13.3,9.7-37.7,9.7c-24.5,0-38-9.7-38-9.7"/>
<path class="st1" d="M363.4,295.9c0,0-13.2,9.7-37.7,9.7s-38.2-9.7-38.2-9.7"/>
<path class="st2" d="M302.5,254.2c2.3-0.4,4.3,1.6,3.9,3.9c-0.2,1.3-1.3,2.4-2.6,2.6c-2.3,0.4-4.3-1.6-3.9-3.9
	C300.2,255.6,301.2,254.5,302.5,254.2z"/>
<path class="st2" d="M302.5,287.1c2.3-0.4,4.3,1.6,3.9,3.9c-0.2,1.3-1.3,2.4-2.6,2.6c-2.3,0.4-4.3-1.6-3.9-3.9
	C300.2,288.4,301.2,287.3,302.5,287.1z"/>
<path class="st2" d="M302.5,313.9c2.3-0.4,4.3,1.6,3.9,3.9c-0.2,1.3-1.3,2.4-2.6,2.6c-2.3,0.4-4.3-1.6-3.9-3.9
	C300.2,315.2,301.2,314.2,302.5,313.9z"/>
<path class="st3" d="M315.2,261.3c3.2,0.3,6.6,0.4,10.1,0.4c21,0,38.1-5.3,38.1-11.8c0-6.5-17.1-11.8-38.1-11.8
	c-10.1,0-20.5,1.1-27.5,3.1"/>
<path class="st1" d="M721.7,555.6h-71c-4,0-7.2-3.2-7.2-7.2l0,0c0-4,3.2-7.2,7.2-7.2h71c4,0,7.2,3.2,7.2,7.2l0,0
	C728.9,552.4,725.7,555.6,721.7,555.6z"/>
<path class="st1" d="M656.2,464.6h-5c-4.2,0-7.7,3.5-7.7,7.7v47.6c0,4.2,3.5,7.7,7.7,7.7h5c4.2,0,7.7-3.5,7.7-7.7v-47.6
	C663.9,468,660.4,464.6,656.2,464.6z"/>
<path class="st1" d="M691.3,496.2h-9.6c-3,0-5.4,2.4-5.4,5.4v20.5c0,3,2.4,5.4,5.4,5.4h9.6c3,0,5.4-2.4,5.4-5.4v-20.5
	C696.7,498.6,694.3,496.2,691.3,496.2z"/>
<path class="st1" d="M722.4,482.4H715c-3.6,0-6.5,2.9-6.5,6.5V521c0,3.6,2.9,6.5,6.5,6.5h7.4c3.6,0,6.5-2.9,6.5-6.5v-32.1
	C728.9,485.3,726,482.4,722.4,482.4z"/>
<path class="st3" d="M717.5,263h-62.4c-7.2,0-13.2,5.9-13.2,13.2v47c0,7.2,5.9,13.2,13.2,13.2h62.4c7.2,0,13.2-5.9,13.2-13.2v-47
	C730.7,269,724.8,263,717.5,263z"/>
<path class="st3" d="M642,291v-22.9c0-11.7,9.1-21.2,20.2-21.2H681c0,0,3,0,3.5,0.6c1.2,1.3,1.1,6.6,1.1,6.6s26.3,0,35.1,0
	c6.2,1.4,10,4.7,10,23.3"/>
<path class="st3" d="M371.9,473.2h-78.1c-7.3,0-13.2,5.9-13.2,13.2v47.3c0,7.3,5.9,13.2,13.2,13.2h78.1c7.3,0,13.2-5.9,13.2-13.2
	v-47.3C385.1,479.2,379.1,473.2,371.9,473.2z"/>
<polyline class="st3" points="282.1,488.2 333.2,510.1 358.4,499.3 "/>
<path class="st4" d="M374,490.7c0.5,3-2.1,5.5-5,5c-1.9-0.3-3.4-1.8-3.6-3.6c-0.5-3,2.1-5.5,5-5C372.2,487.3,373.7,488.8,374,490.7z
	"/>
<line class="st3" x1="306.9" y1="524" x2="287.4" y2="543.8"/>
<line class="st3" x1="358.7" y1="524" x2="378.2" y2="543.8"/>
<path class="st3" d="M1113,252.9h-78c-6.9,0-12.5,5.6-12.5,12.5v34.4v31.3c0,0,0,3.4,2.7,3.2c1.7,0,15.2-8.5,19.3-11.2
	c0.4,0,0.9,0,1.3,0h67.2c6.9,0,12.5-5.6,12.5-12.5v-45.2C1125.5,258.5,1119.9,252.9,1113,252.9z"/>
<line class="st3" x1="1047.1" y1="280.3" x2="1068.1" y2="280.3"/>
<line class="st3" x1="1047.1" y1="298.4" x2="1092.6" y2="298.4"/>
<path class="st1" d="M482.1,489.9c0,15.2,17.4,48.3,27.5,48.3c9.9,0,27.5-33.2,27.5-48.3s-12.3-27.5-27.5-27.5
	S482.1,474.7,482.1,489.9z"/>
<path class="st1" d="M521.7,487.2c1,8-5.7,14.6-13.6,13.6c-5.4-0.7-9.8-5.1-10.5-10.5c-1-8,5.7-14.6,13.6-13.6
	C516.6,477.5,521,481.8,521.7,487.2z"/>
<path class="st1" d="M537.1,537.3c0,6.2-12.3,11.2-27.5,11.2s-27.5-5-27.5-11.2c0-3.9,5-7.4,12.5-9.4"/>
<path class="st1" d="M882.7,473.2c15.1,13.3,15.1,36.8,0,50.1c-12.5,11-31.5,11-44,0c-15.1-13.3-15.1-36.8,0-50.1
	C851.2,462.3,870.2,462.3,882.7,473.2z"/>
<path class="st1" d="M850.8,510.5c-5.3-2.3-9.1-7.5-9.1-13.7c0-8.2,6.7-14.9,14.9-14.9"/>
<path class="st1" d="M894.5,526.1l-5.3,5.3c-2,2-5.3,2-7.3,0l0,0c-2-2-2-5.3,0-7.3l5.3-5.3c2-2,5.3-2,7.3,0l0,0
	C896.5,520.8,896.5,524.1,894.5,526.1z"/>
<path class="st1" d="M917,553.8L917,553.8c-2,2-5.3,2-7.2,0l-17.3-17.3c-2-2-2-5.3,0-7.2l0,0c2-2,5.3-2,7.2,0l17.3,17.3
	C919,548.6,919,551.8,917,553.8z"/>
<line class="st1" x1="871.8" y1="481.3" x2="903.1" y2="481.3"/>
<path class="st1" d="M1104.6,501.3h-21.8c0,8.8-7,16-15.6,16s-15.6-7.2-15.6-16h-21.8c-3.5,0-6.4,3-6.4,6.6v31.5
	c0,3.6,2.9,6.6,6.4,6.6h74.8c3.5,0,6.4-3,6.4-6.6v-31.5C1111,504.3,1108.1,501.3,1104.6,501.3z"/>
<path class="st3" d="M1100.1,500.9v-22.1c0-11.1,1.8-17.8-7.7-18.2H1043c-9.9,0-8.8,6.6-8.8,16.6v24.2"/>
<path class="st2" d="M1049.2,477h-0.4c-0.6,0-1.1-0.5-1.1-1.1v-0.4c0-0.6,0.5-1.1,1.1-1.1h0.4c0.6,0,1.1,0.5,1.1,1.1v0.4
	C1050.3,476.5,1049.8,477,1049.2,477z"/>
<path class="st2" d="M1055,486.7h-0.4c-0.6,0-1.1-0.5-1.1-1.1v-0.4c0-0.6,0.5-1.1,1.1-1.1h0.4c0.6,0,1.1,0.5,1.1,1.1v0.4
	C1056.2,486.2,1055.7,486.7,1055,486.7z"/>
<line class="st3" x1="1100.3" y1="477.4" x2="1110" y2="503.9"/>
<line class="st3" x1="1024.3" y1="504.2" x2="1033.9" y2="478.4"/>
<line class="st3" x1="1057.2" y1="475.7" x2="1074.7" y2="475.7"/>
<line class="st3" x1="1062.6" y1="485.4" x2="1080.1" y2="485.4"/>
<path class="st1" d="M1243.5,524.3l42.4-42.4c0,0,3.1-2.6,7.8,2.1s6.1,6.6,6.1,6.6s2.3,3.2-1.2,6.7s-54.4,54.4-54.4,54.4
	s-5.1,4.8-9.9,0s-12.3-12.3-12.3-12.3s-6.1-5.4,0-11.5s64.6-64.6,64.6-64.6s6-5.5,11.5,0s18.9,18.9,18.9,18.9s5.7,6.9,0,12.6
	s-45.6,45.6-45.6,45.6"/>
<path class="st1" d="M1280.3,292.9c1,7.8-5.6,14.4-13.4,13.4c-5.3-0.7-9.6-5-10.3-10.3c-1-7.8,5.6-14.4,13.4-13.4
	C1275.3,283.3,1279.6,287.6,1280.3,292.9z"/>
<path class="st1" d="M1303.5,287.8c-3.1,0-7.1,0-8.5,0c-0.6-2.2-1.4-4.4-2.5-6.4l6-6c0,0,3-3.3,0-6.3s-4.6-4.6-4.6-4.6s-3-2.7-5.7,0
	c-2.4,2.4-5.5,5.5-6.2,6.2c-1.7-1-3.5-1.8-5.5-2.4l0.1,0v-8.8c0,0-0.2-4.4-4.4-4.4c-4.3,0-6.5,0-6.5,0s-4,0.2-4,4c0,3.4,0,7.9,0,8.8
	c-2,0.5-3.9,1.2-5.7,2.2l-6.2-6.2c0,0-3.3-3-6.3,0s-4.6,4.6-4.6,4.6s-2.7,3,0,5.7c2.3,2.3,5.2,5.2,6.1,6.1c-1,1.7-1.9,3.5-2.5,5.4
	h-8.7c0,0-4.4,0.2-4.4,4.4c0,4.2,0,6.5,0,6.5s0.2,4,4,4c3,0,6.9,0,8.4,0c0.5,2.3,1.4,4.5,2.5,6.5l-5.9,5.9c0,0-3,3.3,0,6.3
	s4.6,4.6,4.6,4.6s3,2.7,5.7,0c2.1-2.1,4.8-4.8,5.9-5.9c2,1.2,4.2,2.1,6.5,2.8v8.6c0,0,0.2,4.4,4.4,4.4c4.3,0,6.5,0,6.5,0s4-0.2,4-4
	s0-9,0-9l-0.1,0c1.9-0.5,3.6-1.3,5.3-2.1l5.8,5.8c0,0,3.3,3,6.3,0s4.6-4.6,4.6-4.6s2.7-3,0-5.7c-2.1-2.1-4.8-4.8-5.9-5.9
	c1-1.7,1.9-3.6,2.5-5.6h8.5c0,0,4.4-0.2,4.4-4.4c0-4.2,0-6.5,0-6.5S1307.3,287.8,1303.5,287.8z"/>
<path class="st3" d="M355.6,675.1h-55.1c-7.3,0-13.4,6-13.4,13.4v37.3c0,7.3,6,13.4,13.4,13.4h55.1c7.3,0,13.4-6,13.4-13.4v-37.3
	C368.9,681.1,362.9,675.1,355.6,675.1z"/>
<line class="st3" x1="288.1" y1="724.5" x2="367.3" y2="724.5"/>
<path class="st3" d="M334.7,747.6h-13.3c-2,0-3.6-1.6-3.6-3.6v-1.4c0-2,1.6-3.6,3.6-3.6h13.3c2,0,3.6,1.6,3.6,3.6v1.4
	C338.3,746,336.7,747.6,334.7,747.6z"/>
<path class="st3" d="M359,755.3h-62c-2.1,0-3.9-1.7-3.9-3.9l0,0c0-2.1,1.7-3.9,3.9-3.9h62c2.1,0,3.9,1.7,3.9,3.9l0,0
	C362.9,753.6,361.2,755.3,359,755.3z"/>
<line class="st3" x1="343" y1="710.8" x2="331" y2="722.7"/>
<line class="st3" x1="357.2" y1="706.1" x2="345.3" y2="718"/>
<path class="st3" d="M538.5,677.4h-48.3c-7.3,0-13.3,6-13.3,13.3V736h74.8v-45.3C551.7,683.3,545.8,677.4,538.5,677.4z"/>
<line class="st3" x1="528" y1="710.1" x2="517.1" y2="721"/>
<line class="st3" x1="541" y1="705.8" x2="530.1" y2="716.7"/>
<path class="st3" d="M554.3,758.2h-79.1c-2.9,0-5.3-2.4-5.3-5.3v-0.3c0-2.9,2.4-5.3,5.3-5.3h79.1c2.9,0,5.3,2.4,5.3,5.3v0.3
	C559.6,755.8,557.2,758.2,554.3,758.2z"/>
<line class="st3" x1="477.8" y1="735.9" x2="471.1" y2="749.3"/>
<line class="st3" x1="558.2" y1="748.7" x2="550.6" y2="735.6"/>
<path class="st3" d="M718.8,717.1v-25.3L702.4,674h-37.9c-5.8,0-10.5,4.7-10.5,10.5v63.9c0,5.8,4.7,10.5,10.5,10.5h43.8
	c5.8,0,10.5-4.7,10.5-10.5v-8"/>
<path class="st3" d="M697.3,675.1v16.4c0,0-0.2,5.8,3.5,5.8s16.4,0,16.4,0"/>
<path class="st5" d="M721.9,729.2c0.4,2.2-1.5,4.1-3.7,3.7c-1.2-0.2-2.2-1.2-2.5-2.5c-0.4-2.2,1.5-4.1,3.7-3.7
	C720.6,727,721.6,728,721.9,729.2z"/>
<path class="st6" d="M905.8,703.3h-62.1c-2.5,0-4.6-2.1-4.6-4.6v-9.2c0-2.5,2.1-4.6,4.6-4.6h62.1c2.5,0,4.6,2.1,4.6,4.6v9.2
	C910.4,701.2,908.3,703.3,905.8,703.3z"/>
<path class="st0" d="M901.6,706v41c-0.7,0.5-3.2,1.9-10,3.1c-5.3,0.9-11.7,1.5-17.2,1.5c-5.4,0-11.7-0.5-16.8-1.5
	c-6.6-1.2-8.9-2.5-9.6-3V706H901.6 M905.6,702H844v45.7c0,5.3,18.5,7.8,30.4,7.8s31.2-2.5,31.2-7.8L905.6,702L905.6,702z"/>
<line class="st1" x1="862.7" y1="721.6" x2="862.7" y2="733.5"/>
<line class="st1" x1="874.9" y1="718.1" x2="874.9" y2="737"/>
<line class="st1" x1="886.9" y1="721.6" x2="886.9" y2="733.5"/>
<path class="st6" d="M859,684.2c0,0-1.7-12.2,14.9-12.2s16.7,12.2,16.7,12.2"/>
<path class="st6" d="M1255.5,731.8c1.3,10.3-7.4,18.9-17.6,17.6c-7-0.9-12.7-6.5-13.5-13.5c-1.3-10.3,7.4-18.9,17.6-17.6
	C1248.9,719.2,1254.6,724.8,1255.5,731.8z"/>
<path class="st3" d="M1292.4,687.1c1,8.1-5.8,15-13.9,13.9c-5.5-0.7-10-5.2-10.7-10.7c-1-8.1,5.8-15,13.9-13.9
	C1287.3,677.1,1291.7,681.5,1292.4,687.1z"/>
<path class="st3" d="M1313.7,732c1.2,7.6-5.2,14.1-12.9,12.9c-4.6-0.8-8.3-4.5-9.1-9.1c-1.2-7.6,5.2-14.1,12.9-12.9
	C1309.3,723.6,1313,727.4,1313.7,732z"/>
<line class="st3" x1="1250.6" y1="721.1" x2="1268.5" y2="694.5"/>
<line class="st3" x1="1297.7" y1="722.7" x2="1287.4" y2="699.2"/>
<path class="st3" d="M1254.8,686.5c0,0-3.3-20.5,16.7-20.5"/>
<path class="st3" d="M522.1,246.8H519h-19.7c-11.6,0-21.1,7.6-21.1,15.2"/>
<line class="st3" x1="551" y1="277.8" x2="551" y2="255.1"/>
<path class="st3" d="M532.6,233.9h-3.1h-19.7c-11.6,0-21.1,6.7-21.1,15"/>
<path class="st3" d="M534.7,256.7h-44.4c-9,0-16.3,7.3-16.3,16.3v44.4c0,9,7.3,16.3,16.3,16.3h44.4c9,0,16.3-7.3,16.3-16.3V273
	C551,264,543.7,256.7,534.7,256.7z"/>
<path class="st7" d="M540.7,242.3c2.5-0.5,4.7,1.7,4.2,4.2c-0.3,1.4-1.4,2.6-2.8,2.8c-2.5,0.5-4.7-1.7-4.2-4.2
	C538.1,243.7,539.3,242.6,540.7,242.3z"/>
<path class="st7" d="M551.2,233.5c2.5-0.5,4.7,1.7,4.2,4.2c-0.3,1.4-1.4,2.6-2.8,2.8c-2.5,0.5-4.7-1.7-4.2-4.2
	C548.7,234.9,549.8,233.8,551.2,233.5z"/>
<line class="st3" x1="491.1" y1="278.8" x2="514.2" y2="278.8"/>
<line class="st3" x1="491.1" y1="295.2" x2="527.2" y2="295.2"/>
<path class="st3" d="M899.4,254.3h-65.8c-4.9,0-8.9,4-8.9,8.9V329c0,4.9,4,8.9,8.9,8.9h65.8c4.9,0,8.9-4,8.9-8.9v-65.8
	C908.3,258.3,904.3,254.3,899.4,254.3z"/>
<line class="st3" x1="842.6" y1="283.7" x2="863.8" y2="283.7"/>
<line class="st3" x1="842.6" y1="302" x2="888.5" y2="302"/>
<line class="st3" x1="853.6" y1="243.5" x2="853.6" y2="263.1"/>
<line class="st3" x1="879.4" y1="243.5" x2="879.4" y2="263.1"/>
<path class="st6" d="M1066.1,682.8l-34.8,34.8c-0.6,0.6-1,1.4-1.1,2.2l-0.8,10.1c-0.1,1.7,1.1,3,2.8,2.8l9.8-0.8
	c0.8-0.1,1.6-0.5,2.2-1.1l35-35c1.3-1.3,1.4-3.2,0.3-4.3l-9.1-9.1C1069.3,681.3,1067.3,681.5,1066.1,682.8z"/>
<path class="st3" d="M1079.6,690.2l-7.8-7.8c-1.5-1.5-1.5-3.8,0-5.3l5.8-5.8c1.5-1.5,3.8-1.5,5.3,0l7.8,7.8c1.5,1.5,1.5,3.8,0,5.3
	l-5.8,5.8C1083.5,691.6,1081.1,691.6,1079.6,690.2z"/>
<path class="st3" d="M1098.6,755.9h-72c-2.4,0-4.3-1.9-4.3-4.3v-3.3c0-2.4,1.9-4.3,4.3-4.3h72c2.4,0,4.3,1.9,4.3,4.3v3.3
	C1102.9,754,1101,755.9,1098.6,755.9z"/>
<path class="st3" d="M1103.5,739.8"/>
<path class="st8" d="M551.9,929v24.1c0,5.3-4.3,9.5-9.5,9.5h-59.8c-5.3,0-9.5-4.3-9.5-9.5V929"/>
<polyline class="st8" points="501.3,925.8 512.4,936.8 523.6,925.6 "/>
<line class="st8" x1="512.5" y1="911.6" x2="512.5" y2="936.8"/>
<circle class="st9" cx="512.5" cy="899.8" r="3.4"/>
<circle class="st9" cx="512.5" cy="887.6" r="3.4"/>
<path class="st3" d="M724.6,963.1h-62.4c-6.6,0-12-5.4-12-12v-41.6c0-6.6,5.4-12,12-12h62.4c6.6,0,12,5.4,12,12v41.6
	C736.6,957.7,731.2,963.1,724.6,963.1z"/>
<polyline class="st3" points="668.1,942.6 687.1,920.6 700.1,935.7 708.1,926.4 722,942.5 736.6,942.5 "/>
<circle class="st3" cx="668.1" cy="915" r="6.3"/>
<path class="st3" d="M904.7,963h-52.3c-6.6,0-12-5.4-12-12v-47.8c0-6.6,5.4-12,12-12h52.3c6.6,0,12,5.4,12,12V951
	C916.7,957.6,911.3,963,904.7,963z"/>
<line class="st3" x1="878.5" y1="891.1" x2="878.5" y2="917.2"/>
<line class="st3" x1="872.9" y1="898.2" x2="884.2" y2="898.2"/>
<line class="st3" x1="872.9" y1="907.4" x2="884.2" y2="907.4"/>
<path class="st3" d="M878.8,934h-0.6c-2.1,0-3.8-1.7-3.8-3.8V921c0-2.1,1.7-3.8,3.8-3.8h0.6c2.1,0,3.8,1.7,3.8,3.8v9.3
	C882.6,932.3,880.9,934,878.8,934z"/>
<path class="st8" d="M361.5,925.2v25.9c0,5.7-3.4,10.2-7.5,10.2h-47.1c-4.1,0-7.5-4.6-7.5-10.2v-25.9"/>
<path class="st8" d="M289.1,921.7l33.1-33.1c0,0,3.2-4.4,8.4-4.4s9.1,4.3,9.1,4.3l34.4,34.4"/>
<path class="st8" d="M335.6,950.1h-10.3c-1.8,0-3.2-1.4-3.2-3.2v-14c0-1.8,1.4-3.2,3.2-3.2h10.3c1.8,0,3.2,1.4,3.2,3.2v14
	C338.8,948.7,337.4,950.1,335.6,950.1z"/>
<circle class="st8" cx="1066" cy="927.9" r="38.7"/>
<line class="st8" x1="1077" y1="929.9" x2="1064" y2="929.9"/>
<line class="st8" x1="1064" y1="909.6" x2="1064" y2="929.9"/>
<circle class="st0" cx="1084.4" cy="929.9" r="2.5"/>
<line class="st8" x1="1244.9" y1="902.5" x2="1244.9" y2="927.4"/>
<line class="st8" x1="1273" y1="879.4" x2="1273" y2="890"/>
<circle class="st6" cx="1244.6" cy="938.2" r="9.2"/>
<circle class="st6" cx="1273" cy="900.9" r="9.2"/>
<line class="st8" x1="1273" y1="912.3" x2="1273" y2="947.4"/>
<line class="st8" x1="1244.9" y1="948.5" x2="1244.9" y2="965.3"/>
<line class="st8" x1="1300.4" y1="902.5" x2="1300.4" y2="927.4"/>
<circle class="st6" cx="1300.1" cy="938.2" r="9.2"/>
<line class="st8" x1="1300.4" y1="948.5" x2="1300.4" y2="965.3"/>
</svg>
